<?xml version="1.0" standalone="no"?><!DOCTYPE svg PUBLIC "-//W3C//DTD SVG 1.1//EN" "http://www.w3.org/Graphics/SVG/1.1/DTD/svg11.dtd"><svg t="1775976954440" class="icon" viewBox="0 0 1024 1024" version="1.1" xmlns="http://www.w3.org/2000/svg" p-id="6007" xmlns:xlink="http://www.w3.org/1999/xlink" width="20" height="20"><path d="M746.642286 87.478857a109.860571 109.860571 0 0 1 132.900571 18.944l38.692572 39.497143c35.108571 35.84 42.788571 91.209143 18.578285 135.533714l-59.830857 109.933715c-19.017143 34.962286-52.224 59.684571-90.697143 67.510857l-30.281143 6.144-41.325714 44.105143c-7.533714 8.045714-16.164571 14.921143-25.673143 20.48l205.531429 209.627428a125.805714 125.805714 0 0 1 15.652571 155.794286l-4.754285 6.875428-3.437715 4.242286-3.657143 4.388572-3.730285 4.022857a120.32 120.32 0 0 1-85.942857 36.278857c-32.256 0-63.195429-13.092571-85.942858-36.278857L345.526857 529.92l-10.093714 2.048a221.622857 221.622857 0 0 1-175.542857-45.129143l-8.192-6.875428a232.228571 232.228571 0 0 1-65.536-250.88c11.556571-33.572571 43.154286-55.588571 78.116571-54.418286l1.828572 0.146286-0.219429-2.633143a81.92 81.92 0 0 1 47.396571-77.238857l5.997715-2.413715c88.064-32.036571 188.854857-7.606857 249.344 64.292572 38.180571 45.421714 57.417143 104.301714 53.613714 163.986285l0.365714-0.365714 43.446857-46.372571 6.582858-33.060572c7.021714-36.132571 28.086857-67.730286 58.441142-87.771428l7.753143-4.754286 107.812572-61.001143z m-333.531429 109.933714c-40.813714-47.835429-110.299429-62.902857-169.472-41.764571l96.914286 97.28c16.822857 16.384 23.698286 40.594286 17.773714 63.414857-5.997714 22.820571-20.333714 38.034286-43.154286 44.032a64.877714 64.877714 0 0 1-63.195428-17.773714L155.062857 245.394286a152.429714 152.429714 0 0 0 44.178286 166.473143c47.689143 40.96 115.565714 48.274286 170.861714 18.432l433.590857 434.688a43.300571 43.300571 0 0 0 61.293715 0l3.876571-4.461715a43.52 43.52 0 0 0-3.876571-57.051428L581.778286 519.606857 575.634286 514.925714l-6.290286-5.705143-33.645714-33.645714a118.125714 118.125714 0 0 1-12.141715-14.336l-92.16-92.379428c29.988571-55.369143 22.674286-123.611429-18.285714-171.373715v-0.073143z m417.572572-44.397714a23.405714 23.405714 0 0 0-27.794286-3.876571l-112.274286 61.805714a46.08 46.08 0 0 0-22.966857 31.232l-9.435429 46.518857a45.860571 45.860571 0 0 1-11.995428 22.747429l-54.637714 56.612571a22.820571 22.820571 0 0 0 0.365714 32.182857l32.182857 31.890286 3.657143 2.925714a23.405714 23.405714 0 0 0 29.622857-3.291428l53.101714-55.076572a46.592 46.592 0 0 1 24.429715-13.312l45.933714-9.069714a46.445714 46.445714 0 0 0 31.451428-22.747429l62.464-111.250285a22.820571 22.820571 0 0 0-3.876571-27.428572l-40.228571-39.862857z" p-id="6008"></path><path d="M110.884571 733.622857l-3.803428 4.022857-3.218286 3.657143-3.364571 3.949714c-41.545143 52.662857-35.108571 128.877714 14.701714 173.568a124.562286 124.562286 0 0 0 172.470857-5.485714l193.389714-190.902857a106.203429 106.203429 0 0 0 0.292572-149.723429l-29.403429-29.769142a103.862857 103.862857 0 0 0-147.090285-0.877715l-193.974858 191.634286z m289.645715-141.750857l31.744 32.182857c7.68 7.899429 8.777143 20.187429 2.56 29.257143l-2.779429 3.364571-208.603428 207.213715a44.470857 44.470857 0 0 1-62.098286 2.267428 46.226286 46.226286 0 0 1-5.046857-62.902857l3.584-3.949714 208.896-207.652572a22.308571 22.308571 0 0 1 31.670857 0.219429z" p-id="6009"></path></svg>